<svg width="53" height="53" viewBox="0 0 53 53" fill="none" xmlns="http://www.w3.org/2000/svg">
<mask id="mask0" mask-type="alpha" maskUnits="userSpaceOnUse" x="0" y="0" width="53" height="53">
<rect width="53" height="53" rx="6" fill="white"/>
</mask>
<g mask="url(#mask0)">
<path fill-rule="evenodd" clip-rule="evenodd" d="M44.8501 61.8144C44.5944 61.2058 44.1454 59.2964 44.017 57.7106C43.6743 53.4838 43.3766 47.1771 43.0671 45.9812C42.6416 44.3364 41.7348 42.6367 41.7348 42.0468C41.7348 36.8856 40.5794 35.5911 40.5794 34.7561C40.5794 34.2146 40.832 34.5033 40.832 31.3753C40.832 28.2473 37.4137 24.9748 33.9951 24.9748L30.6729 22.9054V19.9219H30.6423C29.8075 20.8523 28.3162 22.2679 26.9657 22.2679C25.6153 22.2679 24.124 20.8523 23.2892 19.9219H23.2586V22.9054L19.9364 24.9748C16.5178 24.9748 13.0995 28.2473 13.0995 31.3753C13.0995 34.5033 13.3524 34.2146 13.3524 34.7561C13.3524 35.5911 12.1967 36.8856 12.1967 42.0468C12.1967 42.6367 11.2896 44.3364 10.8641 45.9812C10.5548 47.1771 10.2575 53.4838 9.91478 57.7106C9.78608 59.2964 9.33736 61.2058 9.08139 61.8144C8.48385 63.2359 11.3661 65.4133 11.5589 65.4907C11.8078 65.5912 11.8925 65.0917 11.977 64.8968C12.3237 64.0947 11.0333 63.1413 11.1164 62.5845C11.2164 61.9153 11.3346 60.74 11.7995 60.9276C12.2647 61.1151 12.422 62.1808 12.8869 62.3683C13.3518 62.5559 13.5513 62.4312 13.6936 62.0788C13.777 61.8722 13.2486 60.5791 12.7744 59.365C12.4393 58.5071 12.4966 57.8919 12.4966 57.8919C12.4966 57.8919 16.1949 49.3018 16.3511 47.5693C16.8537 46.7714 16.6201 46.3719 16.6845 45.7933C16.9421 43.4708 16.9453 38.9789 17.2883 38.9789C17.6134 38.9789 17.6494 40.3868 17.6494 41.2529C17.6494 43.2382 19.1299 43.3102 19.1299 45.9812C19.1299 48.0022 18.5882 47.1723 18.5882 50.7094C18.5882 51.7561 16.8307 52.7186 16.8307 56.9054C16.8307 57.9883 15.6753 60.0093 15.6753 64.3888C15.6753 72.7624 17.9022 76.841 17.9022 80.3784C17.9022 84.168 17.216 83.8433 17.216 88.2466C17.216 92.6501 19.9605 98.2805 19.9605 101.348C19.9605 108.098 17.7217 106.365 17.7217 107.918C17.7217 108.327 18.1548 108.591 18.1548 108.591L21.9827 109H23.9565L24.5586 108.279C24.5586 108.279 24.0288 107.364 24.0288 106.883C24.0288 106.402 24.2935 105.463 24.2935 104.886C24.2935 104.308 23.5474 102.287 23.5474 100.458C23.5474 98.6296 23.4992 93.3718 23.4992 93.3718C23.4992 93.3718 23.6798 91.6395 23.6798 89.8347C23.6798 88.0301 22.5604 87.1277 22.5604 86.3338C22.5604 85.5396 25.7741 79.7647 25.7741 73.3401C25.7741 69.9112 26.6046 64.136 26.6046 60.1297H26.9657H27.3269C27.3269 64.136 28.1574 69.9112 28.1574 73.3401C28.1574 79.7647 31.3713 85.5396 31.3713 86.3338C31.3713 87.1277 30.2517 88.0301 30.2517 89.8347C30.2517 91.6395 30.4322 93.3718 30.4322 93.3718C30.4322 93.3718 30.3843 98.6296 30.3843 100.458C30.3843 102.287 29.638 104.308 29.638 104.886C29.638 105.463 29.9027 106.402 29.9027 106.883C29.9027 107.364 29.3732 108.279 29.3732 108.279L29.975 109H31.949L35.7767 108.591C35.7767 108.591 36.2101 108.327 36.2101 107.918C36.2101 106.365 33.9713 108.098 33.9713 101.348C33.9713 98.2805 36.7155 92.6501 36.7155 88.2466C36.7155 83.8433 36.0292 84.168 36.0292 80.3784C36.0292 76.841 38.2561 72.7624 38.2561 64.3888C38.2561 60.0093 37.1007 57.9883 37.1007 56.9054C37.1007 52.7186 35.3432 51.7561 35.3432 50.7094C35.3432 47.1723 34.8015 48.0022 34.8015 45.9812C34.8015 43.3102 36.2821 43.2382 36.2821 41.2529C36.2821 40.3868 36.3184 38.9789 36.6432 38.9789C36.9862 38.9789 36.9893 43.4708 37.247 45.7933C37.3113 46.3719 37.0778 46.7714 37.5804 47.5693C37.7368 49.3018 41.4352 57.8919 41.4352 57.8919C41.4352 57.8919 41.4922 58.5071 41.1574 59.365C40.6832 60.5791 40.1545 61.8722 40.2378 62.0788C40.3801 62.4312 40.5797 62.5559 41.0446 62.3683C41.5097 62.1808 41.6671 61.1151 42.1319 60.9276C42.5968 60.74 42.7153 61.9153 42.8151 62.5845C42.8984 63.1413 41.6078 64.0947 41.9545 64.8968C42.039 65.0917 42.124 65.5912 42.3729 65.4907C42.5651 65.4133 45.4476 63.2359 44.8501 61.8144Z" fill="white"/>
<path fill-rule="evenodd" clip-rule="evenodd" d="M13.0996 31.3751C13.0996 34.5031 13.3525 34.2144 13.3525 34.7558C14.9413 34.4311 15.9884 33.0595 17.9023 29.8471C19.816 26.6349 21.4411 27.1401 21.4411 26.3822C21.4411 25.8045 20.3217 25.552 19.9365 24.9746C16.5182 24.9746 13.0996 28.2468 13.0996 31.3751Z" fill="#BCC4FF"/>
<path fill-rule="evenodd" clip-rule="evenodd" d="M25.4495 28.4031C25.2375 27.9844 22.1996 26.3818 21.4413 26.3818C21.4413 27.1398 19.8162 26.6346 17.9026 29.8467C17.1919 31.0398 16.6006 31.9785 16.0566 32.7044H16.0569C16.9195 33.1799 16.6386 33.5643 17.4331 34.2503C18.2274 34.936 20.8636 35.9826 22.4885 35.9826C24.1136 35.9826 26.3725 35.0082 26.3725 35.0082V32.5537C26.3725 29.883 25.7789 29.0528 25.4495 28.4031Z" fill="#7E8DFE"/>
<path fill-rule="evenodd" clip-rule="evenodd" d="M23.1143 40.4853V38.0529C23.1143 37.2105 23.4513 36.5849 24.0772 36.5849C24.7031 36.5849 25.979 36.0557 26.1235 36.0557C26.2678 36.0557 26.5569 36.1038 26.5569 36.4047V39.6767C26.5569 40.1518 25.9911 40.1818 25.2088 40.1818C24.7513 40.1818 23.7761 40.5935 23.5718 40.7981C23.3671 41.0027 23.1143 40.7258 23.1143 40.4853Z" fill="white"/>
<path fill-rule="evenodd" clip-rule="evenodd" d="M26.5569 41.8147C26.5569 41.4538 26.3885 41.165 25.9551 41.165H24.8476C24.4142 41.165 23.1865 41.9108 23.1865 42.5845V44.1519C23.1865 44.4647 23.3311 44.633 23.7163 44.633H25.4015C25.6181 44.633 26.5569 44.1998 26.5569 43.5983V41.8147Z" fill="white"/>
<path fill-rule="evenodd" clip-rule="evenodd" d="M23.084 47.9117V46.1219C23.084 45.8151 23.2464 45.3818 23.7158 45.3818H25.6658C25.9546 45.3818 26.5326 45.7428 26.5326 46.14V47.9117C26.5326 48.1823 26.4062 48.6515 26.0992 48.6515H24.077C23.7518 48.6515 23.084 48.3447 23.084 47.9117Z" fill="white"/>
<path fill-rule="evenodd" clip-rule="evenodd" d="M26.0033 49.5176H24.0052C23.6199 49.5176 23.1865 49.8304 23.1865 50.1913C23.1865 50.5523 24.9681 58.4933 26.3644 58.4933H26.5328C26.6054 56.6185 26.5328 50.5121 26.5328 50.1913C26.5328 49.8063 26.4605 49.5176 26.0033 49.5176Z" fill="white"/>
<path fill-rule="evenodd" clip-rule="evenodd" d="M30.8174 40.4853V38.0529C30.8174 37.2105 30.4804 36.5849 29.8545 36.5849C29.2286 36.5849 27.9527 36.0557 27.8081 36.0557C27.6639 36.0557 27.375 36.1038 27.375 36.4047V39.6767C27.375 40.1518 27.9408 40.1818 28.7232 40.1818C29.1804 40.1818 30.1555 40.5935 30.3602 40.7981C30.5645 41.0027 30.8174 40.7258 30.8174 40.4853Z" fill="white"/>
<path fill-rule="evenodd" clip-rule="evenodd" d="M27.375 41.8147C27.375 41.4538 27.5434 41.165 27.9768 41.165H29.084C29.5174 41.165 30.7454 41.9108 30.7454 42.5845V44.1519C30.7454 44.4647 30.6008 44.633 30.2156 44.633H28.5304C28.3138 44.633 27.375 44.1998 27.375 43.5983V41.8147Z" fill="white"/>
<path fill-rule="evenodd" clip-rule="evenodd" d="M30.848 47.9117V46.1219C30.848 45.8151 30.6856 45.3818 30.2162 45.3818H28.2662C27.9774 45.3818 27.3994 45.7428 27.3994 46.14V47.9117C27.3994 48.1823 27.5258 48.6515 27.8328 48.6515H29.8551C30.1799 48.6515 30.848 48.3447 30.848 47.9117Z" fill="white"/>
<path fill-rule="evenodd" clip-rule="evenodd" d="M27.929 49.5176H29.9271C30.3123 49.5176 30.7457 49.8304 30.7457 50.1913C30.7457 50.5523 28.9642 58.4933 27.5678 58.4933H27.3994C27.3269 56.6185 27.3994 50.5121 27.3994 50.1913C27.3994 49.8063 27.4714 49.5176 27.929 49.5176Z" fill="white"/>
<path fill-rule="evenodd" clip-rule="evenodd" d="M16.6839 31.8076C16.6079 31.9223 16.5337 32.0337 16.46 32.1413C16.5337 32.0337 16.6079 31.9226 16.6839 31.8076Z" fill="white"/>
<path fill-rule="evenodd" clip-rule="evenodd" d="M16.0559 32.7051C16.1047 32.6399 16.1546 32.5705 16.2042 32.502C15.2186 33.8651 14.4036 34.5411 13.3517 34.7562C13.3517 35.5911 12.1963 36.8857 12.1963 42.0472C12.1963 43.0938 14.6959 44.4402 15.8433 42.0472C16.5877 40.4948 16.8675 39.8479 17.0415 39.4669C17.13 39.1603 17.2139 38.9792 17.2879 38.9792C17.5404 38.546 17.4322 34.251 17.4322 34.251C16.6379 33.565 16.9185 33.1805 16.0559 32.7051Z" fill="white"/>
<path fill-rule="evenodd" clip-rule="evenodd" d="M16.2471 32.4448C16.3157 32.3489 16.3848 32.2493 16.4551 32.1465C16.3848 32.2493 16.3157 32.3489 16.2471 32.4448Z" fill="white"/>
<path fill-rule="evenodd" clip-rule="evenodd" d="M26.9653 7C23.6967 7 22.0625 9.89 22.0625 11.3979C22.0625 12.9058 22.628 19.1261 22.628 19.1261C22.628 19.1261 24.9538 22.2674 26.9653 22.2674C28.9768 22.2674 31.3026 19.1261 31.3026 19.1261C31.3026 19.1261 31.8681 12.9058 31.8681 11.3979C31.8681 9.89 30.2339 7 26.9653 7Z" fill="white"/>
<path fill-rule="evenodd" clip-rule="evenodd" d="M31.7086 52.3335C31.7086 49.6625 32.4068 49.879 32.4068 48.4595C32.4068 45.4998 31.7086 42.9733 31.7086 41.6498C31.7086 40.3264 31.8288 35.9832 31.8288 35.9832L31.7721 35.9701C31.659 35.9786 31.5493 35.9832 31.4436 35.9832C29.8188 35.9832 27.5598 35.0088 27.5598 35.0088H26.9662H26.3724C26.3724 35.0088 24.1135 35.9832 22.4884 35.9832C22.3832 35.9832 22.2732 35.9786 22.1601 35.9701L22.1031 35.9832C22.1031 35.9832 22.2236 40.3264 22.2236 41.6498C22.2236 42.9733 21.5254 45.4998 21.5254 48.4595C21.5254 49.879 22.2236 49.6625 22.2236 52.3335C22.2236 53.2719 21.5013 53.9335 20.5625 53.9335C20.5625 56.0874 25.6181 60.1297 26.9662 60.1297C28.3141 60.1297 33.3697 56.0874 33.3697 53.9335C32.4306 53.9335 31.7086 53.2719 31.7086 52.3335Z" fill="white"/>
<path fill-rule="evenodd" clip-rule="evenodd" d="M33.3691 53.9333C33.995 52.3093 35.3432 50.709 35.3432 50.709L33.3691 53.9333Z" fill="white"/>
<path fill-rule="evenodd" clip-rule="evenodd" d="M17.8882 79.8839C17.8882 80.1746 18.0589 80.3423 18.2034 80.3423C18.348 80.3423 18.6828 78.7029 18.6828 77.6112C18.6247 77.6129 18.5887 77.4631 18.5887 77.0426C18.5887 75.5474 17.1801 72.8107 17.1801 67.5651C17.1801 62.3195 18.7811 56.5927 19.1309 54.3258L19.0555 53.2689C19.0229 52.6694 18.9866 51.2182 18.9866 51.2182L18.5887 50.6787C18.5887 50.6892 18.5887 50.6988 18.5887 50.7096C18.5887 51.7562 16.8312 52.7187 16.8312 56.9055C16.8312 57.9884 15.6758 60.0094 15.6758 64.3889C15.6758 64.6459 15.678 64.8984 15.682 65.1474C15.6832 65.2154 15.6854 65.2811 15.6868 65.3486C15.6905 65.5274 15.6942 65.7059 15.6999 65.8807C15.7027 65.9645 15.7067 66.0459 15.7098 66.1286C15.7157 66.2839 15.7214 66.4394 15.7291 66.5916C15.7333 66.6791 15.7387 66.7644 15.7432 66.8508C15.7512 66.995 15.7591 67.1395 15.7682 67.2809C15.7739 67.3676 15.7804 67.4526 15.7863 67.5382C15.7963 67.6767 15.8062 67.815 15.8169 67.9504C15.8237 68.0334 15.8314 68.1148 15.8385 68.1969C15.8501 68.3324 15.862 68.4678 15.8748 68.6004C15.8824 68.6786 15.8906 68.7554 15.8983 68.8327C15.9122 68.9667 15.9261 69.1002 15.9408 69.2317C15.949 69.3042 15.9573 69.3756 15.9658 69.447C15.9814 69.5807 15.9975 69.7139 16.0142 69.8448C16.0225 69.9108 16.0312 69.976 16.0397 70.0414C16.0576 70.1763 16.0757 70.31 16.0947 70.4421C16.103 70.5001 16.1112 70.5577 16.1197 70.6155C16.1398 70.7529 16.1602 70.8894 16.1815 71.024C16.1891 71.0733 16.1968 71.1221 16.2047 71.1708C16.2274 71.3133 16.2506 71.4547 16.2742 71.5938C16.2807 71.6318 16.2872 71.6695 16.2937 71.7071C16.3195 71.8579 16.3462 72.0069 16.3728 72.1537C16.3771 72.1775 16.3816 72.2018 16.3861 72.2256C16.4162 72.3897 16.4471 72.5515 16.478 72.7107C16.4788 72.7152 16.4797 72.7201 16.4808 72.7246C17.0684 75.7347 17.7797 77.9155 17.8871 79.8827L17.8882 79.8839Z" fill="white"/>
<path fill-rule="evenodd" clip-rule="evenodd" d="M26.9658 22.268C26.5754 22.268 26.1735 22.149 25.7789 21.958H25.7783C25.7783 23.3387 26.051 27.3331 26.9658 27.3331C27.8805 27.3331 28.1532 23.3387 28.1532 21.958H28.1526C27.758 22.149 27.3561 22.268 26.9658 22.268Z" fill="white"/>
<path fill-rule="evenodd" clip-rule="evenodd" d="M19.1305 54.3254C18.7807 56.592 17.1797 62.3191 17.1797 67.5647C17.1797 72.81 18.5882 75.5468 18.5882 77.0419C18.5882 78.5371 19.0455 76.6121 19.3105 76.6121C19.575 76.6121 20.5419 78.4467 20.5419 79.5837C20.5419 79.637 20.5467 79.667 20.556 79.6763C20.5526 79.6191 20.556 79.5531 20.554 79.4936C20.5489 79.3403 20.5436 79.187 20.5489 79.021C20.5506 78.9626 20.5563 78.8997 20.5589 78.8402C20.5679 78.6538 20.5779 78.4662 20.5963 78.2696C20.5997 78.233 20.6048 78.1954 20.6085 78.1585C20.7295 76.9459 20.9914 75.6006 21.1454 74.5423C21.1502 74.512 21.1558 74.4775 21.1601 74.4477C21.1918 74.223 21.2182 74.0125 21.2361 73.8207C21.3803 72.2816 22.2948 69.1074 22.7384 67.2295C22.7384 67.2295 22.7393 67.2131 22.7407 67.1884C22.7427 67.1567 22.7464 67.0881 22.7518 66.9935C22.7526 66.979 22.7535 66.9578 22.7543 66.9422C22.7588 66.8552 22.7639 66.7558 22.7702 66.63C22.7702 66.6269 22.7702 66.6229 22.7705 66.6201C22.7773 66.4792 22.7843 66.3186 22.792 66.1361C22.792 66.129 22.7923 66.12 22.7926 66.1129C22.815 65.561 22.8379 64.8407 22.8481 64.029C22.8493 63.9658 22.849 63.8981 22.8495 63.834C22.8518 63.6198 22.8538 63.4054 22.8538 63.1821C22.8541 62.8917 22.8478 62.2757 22.8478 62.2658C22.8478 60.8998 21.2772 56.5133 20.666 54.607C20.5447 54.2285 20.602 54.0871 20.562 53.9332C20.3219 53.0059 18.9859 51.2178 18.9859 51.2178L19.1305 54.3254Z" fill="white"/>
<path fill-rule="evenodd" clip-rule="evenodd" d="M36.0435 79.8839C36.0435 80.1746 35.8726 80.3423 35.7283 80.3423C35.5837 80.3423 35.2489 78.7029 35.2489 77.6112C35.3068 77.6129 35.343 77.4631 35.343 77.0426C35.343 75.5474 36.7516 72.8107 36.7516 67.5651C36.7516 62.3195 35.1506 56.5927 34.8008 54.3258L34.8762 53.2689C34.9088 52.6694 34.9451 51.2182 34.9451 51.2182L35.343 50.6787C35.343 50.6892 35.343 50.6988 35.343 50.7096C35.343 51.7562 37.1005 52.7187 37.1005 56.9055C37.1005 57.9884 38.2559 60.0094 38.2559 64.3889C38.2559 64.6459 38.2537 64.8984 38.2497 65.1474C38.2486 65.2154 38.2463 65.2811 38.2449 65.3486C38.2412 65.5274 38.2372 65.7059 38.2316 65.8807C38.229 65.9645 38.225 66.0459 38.2219 66.1286C38.216 66.2839 38.2103 66.4394 38.2026 66.5916C38.1984 66.6791 38.193 66.7644 38.1882 66.8508C38.1805 66.995 38.1726 67.1395 38.1635 67.2809C38.1579 67.3676 38.1513 67.4526 38.1451 67.5382C38.1355 67.6767 38.1255 67.815 38.1145 67.9504C38.108 68.0334 38.1003 68.1148 38.0932 68.1969C38.0816 68.3324 38.0697 68.4678 38.0569 68.6004C38.0493 68.6786 38.0411 68.7554 38.0334 68.8327C38.0195 68.9667 38.0056 69.1002 37.9909 69.2317C37.9827 69.3042 37.9745 69.3756 37.9659 69.447C37.9501 69.5807 37.9342 69.7139 37.9175 69.8448C37.9093 69.9108 37.9005 69.976 37.892 70.0414C37.8741 70.1763 37.856 70.31 37.837 70.4421C37.8287 70.5001 37.8205 70.5577 37.812 70.6155C37.7919 70.7529 37.7712 70.8894 37.7502 71.024C37.7426 71.0733 37.7349 71.1221 37.727 71.1708C37.7043 71.3133 37.6811 71.4547 37.6573 71.5938C37.651 71.6318 37.6445 71.6695 37.638 71.7071C37.6122 71.8579 37.5855 72.0069 37.5589 72.1537C37.5544 72.1775 37.5501 72.2018 37.5456 72.2256C37.5152 72.3897 37.4846 72.5515 37.4537 72.7107C37.4529 72.7152 37.452 72.7201 37.4509 72.7246C36.8633 75.7347 36.1521 77.9155 36.0446 79.8827L36.0435 79.8839Z" fill="white"/>
<path fill-rule="evenodd" clip-rule="evenodd" d="M34.8007 54.3254C35.1505 56.592 36.7515 62.3191 36.7515 67.5647C36.7515 72.81 35.343 75.5468 35.343 77.0419C35.343 78.5371 34.8858 76.6121 34.6207 76.6121C34.356 76.6121 33.3894 78.4467 33.3894 79.5837C33.3894 79.637 33.3843 79.667 33.3752 79.6763C33.3786 79.6191 33.3752 79.5531 33.3772 79.4936C33.3823 79.3403 33.3877 79.187 33.3823 79.021C33.3806 78.9626 33.3749 78.8997 33.3721 78.8402C33.3633 78.6538 33.3531 78.4662 33.3349 78.2696C33.3313 78.233 33.3264 78.1954 33.3225 78.1585C33.2017 76.9459 32.9398 75.6006 32.7859 74.5423C32.7811 74.512 32.7754 74.4775 32.7711 74.4477C32.7394 74.223 32.713 74.0125 32.6952 73.8207C32.5506 72.2816 31.6364 69.1074 31.1928 67.2295C31.1928 67.2295 31.192 67.2131 31.1905 67.1884C31.1886 67.1567 31.1849 67.0881 31.1795 66.9935C31.1786 66.979 31.1775 66.9578 31.1769 66.9422C31.1724 66.8552 31.167 66.7558 31.1611 66.63C31.1608 66.6269 31.1608 66.6229 31.1608 66.6201C31.154 66.4792 31.1469 66.3186 31.1392 66.1361C31.1392 66.129 31.1389 66.12 31.1384 66.1129C31.1163 65.561 31.0933 64.8407 31.0831 64.029C31.082 63.9658 31.0823 63.8981 31.0814 63.834C31.0794 63.6198 31.0771 63.4054 31.0771 63.1821C31.0771 62.8917 31.0834 62.2757 31.0834 62.2658C31.0834 60.8998 32.6541 56.5133 33.2652 54.607C33.3865 54.2285 33.3293 54.0871 33.3692 53.9332C33.6093 53.0059 34.9453 51.2178 34.9453 51.2178L34.8007 54.3254Z" fill="white"/>
<path fill-rule="evenodd" clip-rule="evenodd" d="M12.1963 42.047C12.1963 41.7888 12.2014 41.5477 12.2068 41.3086C12.2005 41.5452 12.1963 41.7888 12.1963 42.047Z" fill="white"/>
<path fill-rule="evenodd" clip-rule="evenodd" d="M13.4284 47.5687C13.673 46.0843 13.9176 45.5482 13.4284 44.633C12.9391 43.7182 12.6128 44.9776 11.2976 44.633C11.136 45.0708 10.9815 45.5267 10.8639 45.9806C10.5963 47.015 10.6819 51.9297 10.4883 55.9737H10.4886C10.4886 55.9737 11.5527 53.8623 11.6343 51.743C11.7157 49.6237 13.1837 49.053 13.4284 47.5687Z" fill="white"/>
<path fill-rule="evenodd" clip-rule="evenodd" d="M13.7107 50.1341C13.0205 52.2327 12.4961 57.892 12.4961 57.892C12.4961 57.892 16.1945 49.3019 16.3506 47.5693C16.3506 47.5693 14.401 48.0354 13.7107 50.1341Z" fill="white"/>
<path fill-rule="evenodd" clip-rule="evenodd" d="M40.8317 31.3751C40.8317 34.5031 40.5789 34.2144 40.5789 34.7558C38.9901 34.4311 37.943 33.0595 36.0293 29.8471C34.1153 26.6349 32.4902 27.1401 32.4902 26.3822C32.4902 25.8045 33.6096 25.552 33.9949 24.9746C37.4132 24.9746 40.8317 28.2468 40.8317 31.3751Z" fill="#BCC4FF"/>
<path fill-rule="evenodd" clip-rule="evenodd" d="M28.4825 28.4031C28.6948 27.9844 31.7325 26.3818 32.4907 26.3818C32.4907 27.1398 34.1158 26.6346 36.0298 29.8467C36.7404 31.0398 37.3314 31.9785 37.8754 32.7044C37.0128 33.1799 37.2935 33.5643 36.4989 34.2503C35.7046 34.936 33.0687 35.9826 31.4436 35.9826C29.8185 35.9826 27.5596 35.0082 27.5596 35.0082V32.5537C27.5596 29.883 28.1534 29.0528 28.4825 28.4031Z" fill="#7E8DFE"/>
<path fill-rule="evenodd" clip-rule="evenodd" d="M37.2471 31.8076C37.323 31.9223 37.3976 32.0337 37.471 32.1413C37.3976 32.0337 37.323 31.9226 37.2471 31.8076Z" fill="white"/>
<path fill-rule="evenodd" clip-rule="evenodd" d="M37.8749 32.7051C37.8261 32.6399 37.7762 32.5705 37.7263 32.502C38.7122 33.8651 39.5272 34.5411 40.5791 34.7562C40.5791 35.5911 41.7345 36.8857 41.7345 42.0472C41.7345 43.0938 39.2349 44.4402 38.0875 42.0472C37.3431 40.4948 37.063 39.8479 36.8893 39.4669C36.8006 39.1603 36.7169 38.9792 36.6429 38.9792C36.3904 38.546 36.4987 34.251 36.4987 34.251C37.2929 33.565 37.0123 33.1805 37.8749 32.7051Z" fill="white"/>
<path fill-rule="evenodd" clip-rule="evenodd" d="M37.6839 32.4448C37.6153 32.3489 37.5459 32.2493 37.4756 32.1465C37.5462 32.2493 37.6153 32.3489 37.6839 32.4448Z" fill="white"/>
<path fill-rule="evenodd" clip-rule="evenodd" d="M40.5032 47.5687C40.2585 46.0843 40.0139 45.5482 40.5032 44.633C40.9924 43.7182 41.3187 44.9776 42.634 44.633C42.7956 45.0708 42.95 45.5267 43.0674 45.9806C43.3353 47.015 43.2497 51.9297 43.4433 55.9737H43.443C43.443 55.9737 42.3789 53.8623 42.2972 51.743C42.2156 49.6237 40.7478 49.053 40.5032 47.5687Z" fill="white"/>
<path fill-rule="evenodd" clip-rule="evenodd" d="M40.22 50.1341C40.9102 52.2327 41.4346 57.892 41.4346 57.892C41.4346 57.892 37.7363 49.3019 37.5801 47.5693C37.5801 47.5693 39.5297 48.0354 40.22 50.1341Z" fill="white"/>
<path fill-rule="evenodd" clip-rule="evenodd" d="M22.2015 14.0447C22.2015 13.6328 21.6111 13.5166 21.2267 13.5166C20.8417 13.5166 20.6938 14.1082 20.9897 15.4985C21.2856 16.8891 22.4646 17.2934 22.4646 17.2934L22.2015 14.0447Z" fill="white"/>
<path fill-rule="evenodd" clip-rule="evenodd" d="M31.7299 14.0447C31.7299 13.6328 32.32 13.5166 32.7047 13.5166C33.0896 13.5166 33.2376 14.1082 32.9417 15.4985C32.6454 16.8891 31.4668 17.2934 31.4668 17.2934L31.7299 14.0447Z" fill="white"/>
<path fill-rule="evenodd" clip-rule="evenodd" d="M13.0996 31.3751C13.0996 34.5031 13.3525 34.2144 13.3525 34.7558C14.9413 34.4311 15.9884 33.0595 17.9023 29.8471C19.816 26.6349 21.4411 27.1401 21.4411 26.3822C21.4411 25.8045 20.3217 25.552 19.9365 24.9746C16.5182 24.9746 13.0996 28.2468 13.0996 31.3751Z" stroke="#353E82" stroke-width="0.564973" stroke-linejoin="round"/>
<path fill-rule="evenodd" clip-rule="evenodd" d="M25.4495 28.4031C25.2375 27.9844 22.1996 26.3818 21.4413 26.3818C21.4413 27.1398 19.8162 26.6346 17.9026 29.8467C17.1919 31.0398 16.6006 31.9785 16.0566 32.7044H16.0569C16.9195 33.1799 16.6386 33.5643 17.4331 34.2503C18.2274 34.936 20.8636 35.9826 22.4885 35.9826C24.1136 35.9826 26.3725 35.0082 26.3725 35.0082V32.5537C26.3725 29.883 25.7789 29.0528 25.4495 28.4031Z" stroke="#353E82" stroke-width="0.564973" stroke-linejoin="round"/>
<path fill-rule="evenodd" clip-rule="evenodd" d="M23.1143 40.4853V38.0529C23.1143 37.2105 23.4513 36.5849 24.0772 36.5849C24.7031 36.5849 25.979 36.0557 26.1235 36.0557C26.2678 36.0557 26.5569 36.1038 26.5569 36.4047V39.6767C26.5569 40.1518 25.9911 40.1818 25.2088 40.1818C24.7513 40.1818 23.7761 40.5935 23.5718 40.7981C23.3671 41.0027 23.1143 40.7258 23.1143 40.4853Z" stroke="#353E82" stroke-width="0.564973" stroke-linejoin="round"/>
<path fill-rule="evenodd" clip-rule="evenodd" d="M26.5569 41.8147C26.5569 41.4538 26.3885 41.165 25.9551 41.165H24.8476C24.4142 41.165 23.1865 41.9108 23.1865 42.5845V44.1519C23.1865 44.4647 23.3311 44.633 23.7163 44.633H25.4015C25.6181 44.633 26.5569 44.1998 26.5569 43.5983V41.8147Z" stroke="#353E82" stroke-width="0.564973" stroke-linejoin="round"/>
<path fill-rule="evenodd" clip-rule="evenodd" d="M23.084 47.9117V46.1219C23.084 45.8151 23.2464 45.3818 23.7158 45.3818H25.6658C25.9546 45.3818 26.5326 45.7428 26.5326 46.14V47.9117C26.5326 48.1823 26.4062 48.6515 26.0992 48.6515H24.077C23.7518 48.6515 23.084 48.3447 23.084 47.9117Z" stroke="#353E82" stroke-width="0.564973" stroke-linejoin="round"/>
<path fill-rule="evenodd" clip-rule="evenodd" d="M26.0033 49.5176H24.0052C23.6199 49.5176 23.1865 49.8304 23.1865 50.1913C23.1865 50.5523 24.9681 58.4933 26.3644 58.4933H26.5328C26.6054 56.6185 26.5328 50.5121 26.5328 50.1913C26.5328 49.8063 26.4605 49.5176 26.0033 49.5176Z" stroke="#353E82" stroke-width="0.564973" stroke-linejoin="round"/>
<path fill-rule="evenodd" clip-rule="evenodd" d="M30.8174 40.4853V38.0529C30.8174 37.2105 30.4804 36.5849 29.8545 36.5849C29.2286 36.5849 27.9527 36.0557 27.8081 36.0557C27.6639 36.0557 27.375 36.1038 27.375 36.4047V39.6767C27.375 40.1518 27.9408 40.1818 28.7232 40.1818C29.1804 40.1818 30.1555 40.5935 30.3602 40.7981C30.5645 41.0027 30.8174 40.7258 30.8174 40.4853Z" stroke="#353E82" stroke-width="0.564973" stroke-linejoin="round"/>
<path fill-rule="evenodd" clip-rule="evenodd" d="M27.375 41.8147C27.375 41.4538 27.5434 41.165 27.9768 41.165H29.084C29.5174 41.165 30.7454 41.9108 30.7454 42.5845V44.1519C30.7454 44.4647 30.6008 44.633 30.2156 44.633H28.5304C28.3138 44.633 27.375 44.1998 27.375 43.5983V41.8147Z" stroke="#353E82" stroke-width="0.564973" stroke-linejoin="round"/>
<path fill-rule="evenodd" clip-rule="evenodd" d="M30.848 47.9117V46.1219C30.848 45.8151 30.6856 45.3818 30.2162 45.3818H28.2662C27.9774 45.3818 27.3994 45.7428 27.3994 46.14V47.9117C27.3994 48.1823 27.5258 48.6515 27.8328 48.6515H29.8551C30.1799 48.6515 30.848 48.3447 30.848 47.9117Z" stroke="#353E82" stroke-width="0.564973" stroke-linejoin="round"/>
<path fill-rule="evenodd" clip-rule="evenodd" d="M27.929 49.5176H29.9271C30.3123 49.5176 30.7457 49.8304 30.7457 50.1913C30.7457 50.5523 28.9642 58.4933 27.5678 58.4933H27.3994C27.3269 56.6185 27.3994 50.5121 27.3994 50.1913C27.3994 49.8063 27.4714 49.5176 27.929 49.5176Z" stroke="#353E82" stroke-width="0.564973" stroke-linejoin="round"/>
<path fill-rule="evenodd" clip-rule="evenodd" d="M16.6839 31.8076V31.8076C16.6079 31.9223 16.5337 32.0337 16.46 32.1413C16.5337 32.0337 16.6079 31.9226 16.6839 31.8076Z" stroke="#353E82" stroke-width="0.564973" stroke-linejoin="round"/>
<path fill-rule="evenodd" clip-rule="evenodd" d="M16.0559 32.7051V32.7051C16.1047 32.6399 16.1546 32.5705 16.2042 32.502C15.2186 33.8651 14.4036 34.5411 13.3517 34.7562C13.3517 35.5911 12.1963 36.8857 12.1963 42.0472C12.1963 43.0938 14.6959 44.4402 15.8433 42.0472C16.5877 40.4948 16.8675 39.8479 17.0415 39.4669C17.13 39.1603 17.2139 38.9792 17.2879 38.9792C17.5404 38.546 17.4322 34.251 17.4322 34.251C16.6379 33.565 16.9185 33.1805 16.0559 32.7051Z" stroke="#353E82" stroke-width="0.564973" stroke-linejoin="round"/>
<path fill-rule="evenodd" clip-rule="evenodd" d="M16.2471 32.4448C16.3157 32.3489 16.3848 32.2493 16.4551 32.1465C16.3848 32.2493 16.3157 32.3489 16.2471 32.4448Z" stroke="#353E82" stroke-width="0.564973" stroke-linejoin="round"/>
<path fill-rule="evenodd" clip-rule="evenodd" d="M26.9653 7C23.6967 7 22.0625 9.89 22.0625 11.3979C22.0625 12.9058 22.628 19.1261 22.628 19.1261C22.628 19.1261 24.9538 22.2674 26.9653 22.2674C28.9768 22.2674 31.3026 19.1261 31.3026 19.1261C31.3026 19.1261 31.8681 12.9058 31.8681 11.3979C31.8681 9.89 30.2339 7 26.9653 7Z" stroke="#353E82" stroke-width="0.564973" stroke-linejoin="round"/>
<path fill-rule="evenodd" clip-rule="evenodd" d="M31.7086 52.3335C31.7086 49.6625 32.4068 49.879 32.4068 48.4595C32.4068 45.4998 31.7086 42.9733 31.7086 41.6498C31.7086 40.3264 31.8288 35.9832 31.8288 35.9832L31.7721 35.9701C31.659 35.9786 31.5493 35.9832 31.4436 35.9832C29.8188 35.9832 27.5598 35.0088 27.5598 35.0088H26.9662H26.3724C26.3724 35.0088 24.1135 35.9832 22.4884 35.9832C22.3832 35.9832 22.2732 35.9786 22.1601 35.9701L22.1031 35.9832C22.1031 35.9832 22.2236 40.3264 22.2236 41.6498C22.2236 42.9733 21.5254 45.4998 21.5254 48.4595C21.5254 49.879 22.2236 49.6625 22.2236 52.3335C22.2236 53.2719 21.5013 53.9335 20.5625 53.9335C20.5625 56.0874 25.6181 60.1297 26.9662 60.1297C28.3141 60.1297 33.3697 56.0874 33.3697 53.9335C32.4306 53.9335 31.7086 53.2719 31.7086 52.3335Z" stroke="#353E82" stroke-width="0.564973" stroke-linejoin="round"/>
<path d="M33.3691 53.9333C33.995 52.3093 35.3432 50.709 35.3432 50.709" stroke="#353E82" stroke-width="0.564973" stroke-linejoin="round"/>
<path fill-rule="evenodd" clip-rule="evenodd" d="M17.8882 79.8839C17.8882 80.1746 18.0589 80.3423 18.2034 80.3423C18.348 80.3423 18.6828 78.7029 18.6828 77.6112C18.6247 77.6129 18.5887 77.4631 18.5887 77.0426C18.5887 75.5474 17.1801 72.8107 17.1801 67.5651C17.1801 62.3195 18.7811 56.5927 19.1309 54.3258L19.0555 53.2689C19.0229 52.6694 18.9866 51.2182 18.9866 51.2182L18.5887 50.6787C18.5887 50.6892 18.5887 50.6988 18.5887 50.7096C18.5887 51.7562 16.8312 52.7187 16.8312 56.9055C16.8312 57.9884 15.6758 60.0094 15.6758 64.3889C15.6758 64.6459 15.678 64.8984 15.682 65.1474C15.6832 65.2154 15.6854 65.2811 15.6868 65.3486C15.6905 65.5274 15.6942 65.7059 15.6999 65.8807C15.7027 65.9645 15.7067 66.0459 15.7098 66.1286C15.7157 66.2839 15.7214 66.4394 15.7291 66.5916C15.7333 66.6791 15.7387 66.7644 15.7432 66.8508C15.7512 66.995 15.7591 67.1395 15.7682 67.2809C15.7739 67.3676 15.7804 67.4526 15.7863 67.5382C15.7963 67.6767 15.8062 67.815 15.8169 67.9504C15.8237 68.0334 15.8314 68.1148 15.8385 68.1969C15.8501 68.3324 15.862 68.4678 15.8748 68.6004C15.8824 68.6786 15.8906 68.7554 15.8983 68.8327C15.9122 68.9667 15.9261 69.1002 15.9408 69.2317C15.949 69.3042 15.9573 69.3756 15.9658 69.447C15.9814 69.5807 15.9975 69.7139 16.0142 69.8448C16.0225 69.9108 16.0312 69.976 16.0397 70.0414C16.0576 70.1763 16.0757 70.31 16.0947 70.4421C16.103 70.5001 16.1112 70.5577 16.1197 70.6155C16.1398 70.7529 16.1602 70.8894 16.1815 71.024C16.1891 71.0733 16.1968 71.1221 16.2047 71.1708C16.2274 71.3133 16.2506 71.4547 16.2742 71.5938C16.2807 71.6318 16.2872 71.6695 16.2937 71.7071C16.3195 71.8579 16.3462 72.0069 16.3728 72.1537C16.3771 72.1775 16.3816 72.2018 16.3861 72.2256C16.4162 72.3897 16.4471 72.5515 16.478 72.7107C16.4788 72.7152 16.4797 72.7201 16.4808 72.7246C17.0684 75.7347 17.7797 77.9155 17.8871 79.8827L17.8882 79.8839Z" stroke="#353E82" stroke-width="0.564973" stroke-linejoin="round"/>
<path fill-rule="evenodd" clip-rule="evenodd" d="M26.9658 22.268C26.5754 22.268 26.1735 22.149 25.7789 21.958H25.7783C25.7783 23.3387 26.051 27.3331 26.9658 27.3331C27.8805 27.3331 28.1532 23.3387 28.1532 21.958H28.1526C27.758 22.149 27.3561 22.268 26.9658 22.268Z" stroke="#353E82" stroke-width="0.564973" stroke-linejoin="round"/>
<path fill-rule="evenodd" clip-rule="evenodd" d="M19.1305 54.3254C18.7807 56.592 17.1797 62.3191 17.1797 67.5647C17.1797 72.81 18.5882 75.5468 18.5882 77.0419C18.5882 78.5371 19.0455 76.6121 19.3105 76.6121C19.575 76.6121 20.5419 78.4467 20.5419 79.5837C20.5419 79.637 20.5467 79.667 20.556 79.6763C20.5526 79.6191 20.556 79.5531 20.554 79.4936C20.5489 79.3403 20.5436 79.187 20.5489 79.021C20.5506 78.9626 20.5563 78.8997 20.5589 78.8402C20.5679 78.6538 20.5779 78.4662 20.5963 78.2696C20.5997 78.233 20.6048 78.1954 20.6085 78.1585C20.7295 76.9459 20.9914 75.6006 21.1454 74.5423C21.1502 74.512 21.1558 74.4775 21.1601 74.4477C21.1918 74.223 21.2182 74.0125 21.2361 73.8207C21.3803 72.2816 22.2948 69.1074 22.7384 67.2295C22.7384 67.2295 22.7393 67.2131 22.7407 67.1884C22.7427 67.1567 22.7464 67.0881 22.7518 66.9935C22.7526 66.979 22.7535 66.9578 22.7543 66.9422C22.7588 66.8552 22.7639 66.7558 22.7702 66.63C22.7702 66.6269 22.7702 66.6229 22.7705 66.6201C22.7773 66.4792 22.7843 66.3186 22.792 66.1361C22.792 66.129 22.7923 66.12 22.7926 66.1129C22.815 65.561 22.8379 64.8407 22.8481 64.029C22.8493 63.9658 22.849 63.8981 22.8495 63.834C22.8518 63.6198 22.8538 63.4054 22.8538 63.1821C22.8541 62.8917 22.8478 62.2757 22.8478 62.2658C22.8478 60.8998 21.2772 56.5133 20.666 54.607C20.5447 54.2285 20.602 54.0871 20.562 53.9332C20.3219 53.0059 18.9859 51.2178 18.9859 51.2178L19.1305 54.3254Z" stroke="#353E82" stroke-width="0.564973" stroke-linejoin="round"/>
<path fill-rule="evenodd" clip-rule="evenodd" d="M36.0435 79.8839C36.0435 80.1746 35.8726 80.3423 35.7283 80.3423C35.5837 80.3423 35.2489 78.7029 35.2489 77.6112C35.3068 77.6129 35.343 77.4631 35.343 77.0426C35.343 75.5474 36.7516 72.8107 36.7516 67.5651C36.7516 62.3195 35.1506 56.5927 34.8008 54.3258L34.8762 53.2689C34.9088 52.6694 34.9451 51.2182 34.9451 51.2182L35.343 50.6787C35.343 50.6892 35.343 50.6988 35.343 50.7096C35.343 51.7562 37.1005 52.7187 37.1005 56.9055C37.1005 57.9884 38.2559 60.0094 38.2559 64.3889C38.2559 64.6459 38.2537 64.8984 38.2497 65.1474C38.2486 65.2154 38.2463 65.2811 38.2449 65.3486C38.2412 65.5274 38.2372 65.7059 38.2316 65.8807C38.229 65.9645 38.225 66.0459 38.2219 66.1286C38.216 66.2839 38.2103 66.4394 38.2026 66.5916C38.1984 66.6791 38.193 66.7644 38.1882 66.8508C38.1805 66.995 38.1726 67.1395 38.1635 67.2809C38.1579 67.3676 38.1513 67.4526 38.1451 67.5382C38.1355 67.6767 38.1255 67.815 38.1145 67.9504C38.108 68.0334 38.1003 68.1148 38.0932 68.1969C38.0816 68.3324 38.0697 68.4678 38.0569 68.6004C38.0493 68.6786 38.0411 68.7554 38.0334 68.8327C38.0195 68.9667 38.0056 69.1002 37.9909 69.2317C37.9827 69.3042 37.9745 69.3756 37.9659 69.447C37.9501 69.5807 37.9342 69.7139 37.9175 69.8448C37.9093 69.9108 37.9005 69.976 37.892 70.0414C37.8741 70.1763 37.856 70.31 37.837 70.4421C37.8287 70.5001 37.8205 70.5577 37.812 70.6155C37.7919 70.7529 37.7712 70.8894 37.7502 71.024C37.7426 71.0733 37.7349 71.1221 37.727 71.1708C37.7043 71.3133 37.6811 71.4547 37.6573 71.5938C37.651 71.6318 37.6445 71.6695 37.638 71.7071C37.6122 71.8579 37.5855 72.0069 37.5589 72.1537C37.5544 72.1775 37.5501 72.2018 37.5456 72.2256C37.5152 72.3897 37.4846 72.5515 37.4537 72.7107C37.4529 72.7152 37.452 72.7201 37.4509 72.7246C36.8633 75.7347 36.1521 77.9155 36.0446 79.8827L36.0435 79.8839Z" stroke="#353E82" stroke-width="0.564973" stroke-linejoin="round"/>
<path fill-rule="evenodd" clip-rule="evenodd" d="M34.8007 54.3254C35.1505 56.592 36.7515 62.3191 36.7515 67.5647C36.7515 72.81 35.343 75.5468 35.343 77.0419C35.343 78.5371 34.8858 76.6121 34.6207 76.6121C34.356 76.6121 33.3894 78.4467 33.3894 79.5837C33.3894 79.637 33.3843 79.667 33.3752 79.6763C33.3786 79.6191 33.3752 79.5531 33.3772 79.4936C33.3823 79.3403 33.3877 79.187 33.3823 79.021C33.3806 78.9626 33.3749 78.8997 33.3721 78.8402C33.3633 78.6538 33.3531 78.4662 33.3349 78.2696C33.3313 78.233 33.3264 78.1954 33.3225 78.1585C33.2017 76.9459 32.9398 75.6006 32.7859 74.5423C32.7811 74.512 32.7754 74.4775 32.7711 74.4477C32.7394 74.223 32.713 74.0125 32.6952 73.8207C32.5506 72.2816 31.6364 69.1074 31.1928 67.2295C31.1928 67.2295 31.192 67.2131 31.1905 67.1884C31.1886 67.1567 31.1849 67.0881 31.1795 66.9935C31.1786 66.979 31.1775 66.9578 31.1769 66.9422C31.1724 66.8552 31.167 66.7558 31.1611 66.63C31.1608 66.6269 31.1608 66.6229 31.1608 66.6201C31.154 66.4792 31.1469 66.3186 31.1392 66.1361C31.1392 66.129 31.1389 66.12 31.1384 66.1129C31.1163 65.561 31.0933 64.8407 31.0831 64.029C31.082 63.9658 31.0823 63.8981 31.0814 63.834C31.0794 63.6198 31.0771 63.4054 31.0771 63.1821C31.0771 62.8917 31.0834 62.2757 31.0834 62.2658C31.0834 60.8998 32.6541 56.5133 33.2652 54.607C33.3865 54.2285 33.3293 54.0871 33.3692 53.9332C33.6093 53.0059 34.9453 51.2178 34.9453 51.2178L34.8007 54.3254Z" stroke="#353E82" stroke-width="0.564973" stroke-linejoin="round"/>
<path fill-rule="evenodd" clip-rule="evenodd" d="M12.1963 42.047C12.1963 41.7888 12.2014 41.5477 12.2068 41.3086C12.2005 41.5452 12.1963 41.7888 12.1963 42.047Z" stroke="#353E82" stroke-width="0.564973" stroke-linejoin="round"/>
<path fill-rule="evenodd" clip-rule="evenodd" d="M44.8501 61.8144C44.5944 61.2058 44.1454 59.2964 44.017 57.7106C43.6743 53.4838 43.3766 47.1771 43.0671 45.9812C42.6416 44.3364 41.7348 42.6367 41.7348 42.0468C41.7348 36.8856 40.5794 35.5911 40.5794 34.7561C40.5794 34.2146 40.832 34.5033 40.832 31.3753C40.832 28.2473 37.4137 24.9748 33.9951 24.9748L30.6729 22.9054V19.9219H30.6423C29.8075 20.8523 28.3162 22.2679 26.9657 22.2679C25.6153 22.2679 24.124 20.8523 23.2892 19.9219H23.2586V22.9054L19.9364 24.9748C16.5178 24.9748 13.0995 28.2473 13.0995 31.3753C13.0995 34.5033 13.3524 34.2146 13.3524 34.7561C13.3524 35.5911 12.1967 36.8856 12.1967 42.0468C12.1967 42.6367 11.2896 44.3364 10.8641 45.9812C10.5548 47.1771 10.2575 53.4838 9.91478 57.7106C9.78608 59.2964 9.33736 61.2058 9.08139 61.8144C8.48385 63.2359 11.3661 65.4133 11.5589 65.4907C11.8078 65.5912 11.8925 65.0917 11.977 64.8968C12.3237 64.0947 11.0333 63.1413 11.1164 62.5845C11.2164 61.9153 11.3346 60.74 11.7995 60.9276C12.2647 61.1151 12.422 62.1808 12.8869 62.3683C13.3518 62.5559 13.5513 62.4312 13.6936 62.0788C13.777 61.8722 13.2486 60.5791 12.7744 59.365C12.4393 58.5071 12.4966 57.8919 12.4966 57.8919C12.4966 57.8919 16.1949 49.3018 16.3511 47.5693C16.8537 46.7714 16.6201 46.3719 16.6845 45.7933C16.9421 43.4708 16.9453 38.9789 17.2883 38.9789C17.6134 38.9789 17.6494 40.3868 17.6494 41.2529C17.6494 43.2382 19.1299 43.3102 19.1299 45.9812C19.1299 48.0022 18.5882 47.1723 18.5882 50.7094C18.5882 51.7561 16.8307 52.7186 16.8307 56.9054C16.8307 57.9883 15.6753 60.0093 15.6753 64.3888C15.6753 72.7624 17.9022 76.841 17.9022 80.3784C17.9022 84.168 17.216 83.8433 17.216 88.2466C17.216 92.6501 19.9605 98.2805 19.9605 101.348C19.9605 108.098 17.7217 106.365 17.7217 107.918C17.7217 108.327 18.1548 108.591 18.1548 108.591L21.9827 109H23.9565L24.5586 108.279C24.5586 108.279 24.0288 107.364 24.0288 106.883C24.0288 106.402 24.2935 105.463 24.2935 104.886C24.2935 104.308 23.5474 102.287 23.5474 100.458C23.5474 98.6296 23.4992 93.3718 23.4992 93.3718C23.4992 93.3718 23.6798 91.6395 23.6798 89.8347C23.6798 88.0301 22.5604 87.1277 22.5604 86.3338C22.5604 85.5396 25.7741 79.7647 25.7741 73.3401C25.7741 69.9112 26.6046 64.136 26.6046 60.1297H26.9657H27.3269C27.3269 64.136 28.1574 69.9112 28.1574 73.3401C28.1574 79.7647 31.3713 85.5396 31.3713 86.3338C31.3713 87.1277 30.2517 88.0301 30.2517 89.8347C30.2517 91.6395 30.4322 93.3718 30.4322 93.3718C30.4322 93.3718 30.3843 98.6296 30.3843 100.458C30.3843 102.287 29.638 104.308 29.638 104.886C29.638 105.463 29.9027 106.402 29.9027 106.883C29.9027 107.364 29.3732 108.279 29.3732 108.279L29.975 109H31.949L35.7767 108.591C35.7767 108.591 36.2101 108.327 36.2101 107.918C36.2101 106.365 33.9713 108.098 33.9713 101.348C33.9713 98.2805 36.7155 92.6501 36.7155 88.2466C36.7155 83.8433 36.0292 84.168 36.0292 80.3784C36.0292 76.841 38.2561 72.7624 38.2561 64.3888C38.2561 60.0093 37.1007 57.9883 37.1007 56.9054C37.1007 52.7186 35.3432 51.7561 35.3432 50.7094C35.3432 47.1723 34.8015 48.0022 34.8015 45.9812C34.8015 43.3102 36.2821 43.2382 36.2821 41.2529C36.2821 40.3868 36.3184 38.9789 36.6432 38.9789C36.9862 38.9789 36.9893 43.4708 37.247 45.7933C37.3113 46.3719 37.0778 46.7714 37.5804 47.5693C37.7368 49.3018 41.4352 57.8919 41.4352 57.8919C41.4352 57.8919 41.4922 58.5071 41.1574 59.365C40.6832 60.5791 40.1545 61.8722 40.2378 62.0788C40.3801 62.4312 40.5797 62.5559 41.0446 62.3683C41.5097 62.1808 41.6671 61.1151 42.1319 60.9276C42.5968 60.74 42.7153 61.9153 42.8151 62.5845C42.8984 63.1413 41.6078 64.0947 41.9545 64.8968C42.039 65.0917 42.124 65.5912 42.3729 65.4907C42.5651 65.4133 45.4476 63.2359 44.8501 61.8144Z" stroke="#353E82" stroke-width="0.564973" stroke-linejoin="round"/>
<path fill-rule="evenodd" clip-rule="evenodd" d="M13.4284 47.5687C13.673 46.0843 13.9176 45.5482 13.4284 44.633C12.9391 43.7182 12.6128 44.9776 11.2976 44.633C11.136 45.0708 10.9815 45.5267 10.8639 45.9806C10.5963 47.015 10.6819 51.9297 10.4883 55.9737H10.4886C10.4886 55.9737 11.5527 53.8623 11.6343 51.743C11.7157 49.6237 13.1837 49.053 13.4284 47.5687Z" stroke="#353E82" stroke-width="0.564973" stroke-linejoin="round"/>
<path fill-rule="evenodd" clip-rule="evenodd" d="M13.7107 50.1341C13.0205 52.2327 12.4961 57.892 12.4961 57.892C12.4961 57.892 16.1945 49.3019 16.3506 47.5693C16.3506 47.5693 14.401 48.0354 13.7107 50.1341Z" stroke="#353E82" stroke-width="0.564973" stroke-linejoin="round"/>
<path fill-rule="evenodd" clip-rule="evenodd" d="M40.8317 31.3751C40.8317 34.5031 40.5789 34.2144 40.5789 34.7558C38.9901 34.4311 37.943 33.0595 36.0293 29.8471C34.1153 26.6349 32.4902 27.1401 32.4902 26.3822C32.4902 25.8045 33.6096 25.552 33.9949 24.9746C37.4132 24.9746 40.8317 28.2468 40.8317 31.3751Z" stroke="#353E82" stroke-width="0.564973" stroke-linejoin="round"/>
<path fill-rule="evenodd" clip-rule="evenodd" d="M28.4825 28.4031C28.6948 27.9844 31.7325 26.3818 32.4907 26.3818C32.4907 27.1398 34.1158 26.6346 36.0298 29.8467C36.7404 31.0398 37.3314 31.9785 37.8754 32.7044C37.0128 33.1799 37.2935 33.5643 36.4989 34.2503C35.7046 34.936 33.0687 35.9826 31.4436 35.9826C29.8185 35.9826 27.5596 35.0082 27.5596 35.0082V32.5537C27.5596 29.883 28.1534 29.0528 28.4825 28.4031Z" stroke="#353E82" stroke-width="0.564973" stroke-linejoin="round"/>
<path fill-rule="evenodd" clip-rule="evenodd" d="M37.2471 31.8076V31.8076C37.323 31.9223 37.3976 32.0337 37.471 32.1413C37.3976 32.0337 37.323 31.9226 37.2471 31.8076Z" stroke="#353E82" stroke-width="0.564973" stroke-linejoin="round"/>
<path fill-rule="evenodd" clip-rule="evenodd" d="M37.8749 32.7051V32.7051C37.8261 32.6399 37.7762 32.5705 37.7263 32.502C38.7122 33.8651 39.5272 34.5411 40.5791 34.7562C40.5791 35.5911 41.7345 36.8857 41.7345 42.0472C41.7345 43.0938 39.2349 44.4402 38.0875 42.0472C37.3431 40.4948 37.063 39.8479 36.8893 39.4669C36.8006 39.1603 36.7169 38.9792 36.6429 38.9792C36.3904 38.546 36.4987 34.251 36.4987 34.251C37.2929 33.565 37.0123 33.1805 37.8749 32.7051Z" stroke="#353E82" stroke-width="0.564973" stroke-linejoin="round"/>
<path fill-rule="evenodd" clip-rule="evenodd" d="M37.6839 32.4448C37.6153 32.3489 37.5459 32.2493 37.4756 32.1465C37.5462 32.2493 37.6153 32.3489 37.6839 32.4448Z" stroke="#353E82" stroke-width="0.564973" stroke-linejoin="round"/>
<path fill-rule="evenodd" clip-rule="evenodd" d="M40.5032 47.5687C40.2585 46.0843 40.0139 45.5482 40.5032 44.633C40.9924 43.7182 41.3187 44.9776 42.634 44.633C42.7956 45.0708 42.95 45.5267 43.0674 45.9806C43.3353 47.015 43.2497 51.9297 43.4433 55.9737H43.443C43.443 55.9737 42.3789 53.8623 42.2972 51.743C42.2156 49.6237 40.7478 49.053 40.5032 47.5687Z" stroke="#353E82" stroke-width="0.564973" stroke-linejoin="round"/>
<path fill-rule="evenodd" clip-rule="evenodd" d="M40.22 50.1341C40.9102 52.2327 41.4346 57.892 41.4346 57.892C41.4346 57.892 37.7363 49.3019 37.5801 47.5693C37.5801 47.5693 39.5297 48.0354 40.22 50.1341Z" stroke="#353E82" stroke-width="0.564973" stroke-linejoin="round"/>
<path fill-rule="evenodd" clip-rule="evenodd" d="M22.2015 14.0447C22.2015 13.6328 21.6111 13.5166 21.2267 13.5166C20.8417 13.5166 20.6938 14.1082 20.9897 15.4985C21.2856 16.8891 22.4646 17.2934 22.4646 17.2934L22.2015 14.0447Z" stroke="#353E82" stroke-width="0.564973" stroke-linejoin="round"/>
<path fill-rule="evenodd" clip-rule="evenodd" d="M31.7299 14.0447C31.7299 13.6328 32.32 13.5166 32.7047 13.5166C33.0896 13.5166 33.2376 14.1082 32.9417 15.4985C32.6454 16.8891 31.4668 17.2934 31.4668 17.2934L31.7299 14.0447Z" stroke="#353E82" stroke-width="0.564973" stroke-linejoin="round"/>
</g>
</svg>
